<?xml version="1.0" standalone="no"?><!-- Generator: Gravit.io --><svg xmlns="http://www.w3.org/2000/svg" xmlns:xlink="http://www.w3.org/1999/xlink" style="isolation:isolate" viewBox="0 0 809.85 256.36" width="809.85" height="256.36"><defs><clipPath id="_clipPath_iLDjNCQuIqc7LbcLIry5XwwWkXqHxkif"><rect width="809.85" height="256.36"/></clipPath></defs><g clip-path="url(#_clipPath_iLDjNCQuIqc7LbcLIry5XwwWkXqHxkif)"><g id="Group"><rect x="44.378" y="49.966" width="107.517" height="64.248" transform="matrix(1,0,0,1,0,0)" fill="rgb(181,181,181)"/><rect x="98.137" y="49.966" width="53.758" height="64.248" transform="matrix(1,0,0,1,0,0)" fill="rgb(162,87,87)"/><line x1="142.717" y1="82.09" x2="185.986" y2="82.09" vector-effect="non-scaling-stroke" stroke-width="5" stroke="rgb(162,87,87)" stroke-linejoin="miter" stroke-linecap="square" stroke-miterlimit="3"/><polygon points="187.517,92.527,186.245,71.231,205.324,80.777" fill="rgb(162,87,87)"/></g><g id="Group"><rect x="205.324" y="49.966" width="107.517" height="64.248" transform="matrix(1,0,0,1,0,0)" fill="rgb(181,181,181)"/><rect x="259.082" y="49.966" width="53.758" height="64.248" transform="matrix(1,0,0,1,0,0)" fill="rgb(162,87,87)"/><line x1="303.662" y1="82.09" x2="346.931" y2="82.09" vector-effect="non-scaling-stroke" stroke-width="5" stroke="rgb(162,87,87)" stroke-linejoin="miter" stroke-linecap="square" stroke-miterlimit="3"/><polygon points="348.462,92.527,347.19,71.231,366.27,80.777" fill="rgb(162,87,87)"/></g><g id="Group"><rect x="366.27" y="49.966" width="107.517" height="64.248" transform="matrix(1,0,0,1,0,0)" fill="rgb(181,181,181)"/><rect x="420.028" y="49.966" width="53.758" height="64.248" transform="matrix(1,0,0,1,0,0)" fill="rgb(87,91,162)"/><line x1="464.608" y1="82.09" x2="507.877" y2="82.09" vector-effect="non-scaling-stroke" stroke-width="5" stroke="rgb(87,91,162)" stroke-linejoin="miter" stroke-linecap="square" stroke-miterlimit="3"/><polygon points="509.408,92.527,508.136,71.231,527.215,80.777" fill="rgb(87,91,162)"/></g><g id="Group"><rect x="527.215" y="49.966" width="107.517" height="64.248" transform="matrix(1,0,0,1,0,0)" fill="rgb(181,181,181)"/><rect x="580.973" y="49.966" width="53.758" height="64.248" transform="matrix(1,0,0,1,0,0)" fill="rgb(87,162,156)"/><line x1="625.554" y1="82.09" x2="668.823" y2="82.09" vector-effect="non-scaling-stroke" stroke-width="5" stroke="rgb(87,162,156)" stroke-linejoin="miter" stroke-linecap="square" stroke-miterlimit="3"/><polygon points="670.353,92.527,669.081,71.231,688.161,80.777" fill="rgb(87,162,156)"/></g><g id="Group"><g id="Group"><rect x="688.161" y="49.966" width="107.517" height="64.248" transform="matrix(1,0,0,1,0,0)" fill="rgb(181,181,181)"/><rect x="741.919" y="49.966" width="53.758" height="64.248" transform="matrix(1,0,0,1,0,0)" fill="rgb(87,162,156)"/></g></g><g id="Group"><g id="Group"><rect x="367.127" y="176.751" width="107.517" height="64.248" transform="matrix(-1,-0.005,0.005,-1,840.767,419.76)" fill="rgb(181,181,181)"/><rect x="367.127" y="176.623" width="53.758" height="64.248" transform="matrix(-1,-0.005,0.005,-1,787.01,419.374)" fill="rgb(87,162,156)"/></g></g><g id="Group"><g id="Group"><g id="Group"><rect x="527.644" y="177.217" width="107.517" height="64.248" transform="matrix(-1,-0.013,0.013,-1,1159.926,426.509)" fill="rgb(181,181,181)"/><rect x="527.646" y="176.855" width="53.758" height="64.248" transform="matrix(-1,-0.013,0.013,-1,1106.18,425.421)" fill="rgb(87,162,156)"/></g></g><g id="Group"><line x1="537.412" y1="209.001" x2="494.144" y2="208.671" vector-effect="non-scaling-stroke" stroke-width="5" stroke="rgb(87,162,156)" stroke-linejoin="miter" stroke-linecap="square" stroke-miterlimit="3"/><polygon points="492.693,198.223,493.802,219.528,474.796,209.836" fill="rgb(87,162,156)"/></g></g><g id="Group"><g id="Group"><g id="Group"><rect x="687.732" y="177.217" width="107.517" height="64.248" transform="matrix(-1,-0.013,0.013,-1,1480.089,428.669)" fill="rgb(181,181,181)"/><rect x="687.735" y="176.855" width="53.758" height="64.248" transform="matrix(-1,-0.013,0.013,-1,1426.343,427.581)" fill="rgb(87,162,156)"/></g></g><g id="Group"><line x1="697.5" y1="209.001" x2="654.232" y2="208.671" vector-effect="non-scaling-stroke" stroke-width="5" stroke="rgb(87,162,156)" stroke-linejoin="miter" stroke-linecap="square" stroke-miterlimit="3"/><polygon points="652.781,198.223,653.891,219.528,634.885,209.836" fill="rgb(87,162,156)"/></g></g><g id="Group"><g id="Group"><line x1="392.379" y1="179.754" x2="392.379" y2="134.463" vector-effect="non-scaling-stroke" stroke-width="5.115" stroke="rgb(87,162,156)" stroke-linejoin="miter" stroke-linecap="square" stroke-miterlimit="3"/><polygon points="402.535,133.202,381.207,133.825,391.398,114.182" fill="rgb(87,162,156)"/></g></g><g id="Group"><line x1="766.953" y1="110.962" x2="766.953" y2="156.252" vector-effect="non-scaling-stroke" stroke-width="5.115" stroke="rgb(87,162,156)" stroke-linejoin="miter" stroke-linecap="square" stroke-miterlimit="3"/><polygon points="756.9,157.398,778.234,157.027,767.811,176.548" fill="rgb(87,162,156)"/></g><line x1="20.448" y1="82.09" x2="44.378" y2="82.09" vector-effect="non-scaling-stroke" stroke-width="5" stroke="rgb(162,87,87)" stroke-linejoin="miter" stroke-linecap="square" stroke-miterlimit="3"/><line x1="20.448" y1="26.365" x2="20.448" y2="82.09" vector-effect="non-scaling-stroke" stroke-width="5" stroke="rgb(162,87,87)" stroke-linejoin="miter" stroke-linecap="square" stroke-miterlimit="3"/><line x1="2.5" y1="23.087" x2="38.396" y2="23.087" vector-effect="non-scaling-stroke" stroke-width="5" stroke="rgb(162,87,87)" stroke-linejoin="miter" stroke-linecap="square" stroke-miterlimit="3"/><line x1="6.997" y1="12.597" x2="33.898" y2="12.597" vector-effect="non-scaling-stroke" stroke-width="5" stroke="rgb(162,87,87)" stroke-linejoin="miter" stroke-linecap="square" stroke-miterlimit="3"/><line x1="11.922" y1="2.5" x2="28.973" y2="2.5" vector-effect="non-scaling-stroke" stroke-width="5" stroke="rgb(162,87,87)" stroke-linejoin="miter" stroke-linecap="square" stroke-miterlimit="3"/></g></svg>