<?xml version="1.0" standalone="no"?><!-- Generator: Gravit.io --><svg xmlns="http://www.w3.org/2000/svg" xmlns:xlink="http://www.w3.org/1999/xlink" style="isolation:isolate" viewBox="0 0 1584.064 501.168" width="1584.064" height="501.168"><defs><clipPath id="_clipPath_x86UjaeS2hCUM6MVFB1O2DfnKfdZ0HEu"><rect width="1584.064" height="501.168"/></clipPath></defs><g clip-path="url(#_clipPath_x86UjaeS2hCUM6MVFB1O2DfnKfdZ0HEu)"><g id="Group"/><g id="Group"><g id="Group"><rect x="4.5" y="4.5" width="461.747" height="418.083" transform="matrix(1,0,0,1,0,0)" fill="rgb(255,255,255)" vector-effect="non-scaling-stroke" stroke-width="3" stroke="rgb(128,128,128)" stroke-linejoin="miter" stroke-linecap="square" stroke-miterlimit="3"/><rect x="152.726" y="4.5" width="165.294" height="418.083" transform="matrix(1,0,0,1,0,0)" fill="rgb(255,255,255)" vector-effect="non-scaling-stroke" stroke-width="3" stroke="rgb(128,128,128)" stroke-linejoin="miter" stroke-linecap="square" stroke-miterlimit="3"/><line x1="5.997" y1="284.595" x2="465.468" y2="284.595" vector-effect="non-scaling-stroke" stroke-width="3" stroke="rgb(128,128,128)" stroke-linejoin="miter" stroke-linecap="square" stroke-miterlimit="3"/><line x1="7.135" y1="130.937" x2="466.606" y2="130.937" vector-effect="non-scaling-stroke" stroke-width="3" stroke="rgb(128,128,128)" stroke-linejoin="miter" stroke-linecap="square" stroke-miterlimit="3"/><path d=" M 35.86 68.912 C 35.86 47.977 54.909 30.979 78.371 30.979 C 101.833 30.979 120.882 47.977 120.882 68.912 C 120.882 89.848 101.833 106.845 78.371 106.845 C 54.909 106.845 35.86 89.848 35.86 68.912 Z " fill="rgb(51,51,51)"/><line x1="78.371" y1="121.282" x2="78.371" y2="175.207" vector-effect="non-scaling-stroke" stroke-width="4" stroke="rgb(215,33,33)" stroke-linejoin="miter" stroke-linecap="square" stroke-miterlimit="3"/><polygon points="78.371,193.184,67.177,173.795,89.565,173.795" fill="rgb(215,33,33)" vector-effect="non-scaling-stroke" stroke-width="3" stroke="rgb(215,33,33)" stroke-linejoin="miter" stroke-linecap="square" stroke-miterlimit="3"/></g></g><g id="Group"><rect x="4.5" y="4.5" width="461.747" height="418.083" transform="matrix(1,0,0,1,0,0)" fill="rgb(255,255,255)" vector-effect="non-scaling-stroke" stroke-width="3" stroke="rgb(128,128,128)" stroke-linejoin="miter" stroke-linecap="square" stroke-miterlimit="3"/><rect x="152.726" y="4.5" width="165.294" height="418.083" transform="matrix(1,0,0,1,0,0)" fill="rgb(255,255,255)" vector-effect="non-scaling-stroke" stroke-width="3" stroke="rgb(128,128,128)" stroke-linejoin="miter" stroke-linecap="square" stroke-miterlimit="3"/><g id="Group"><polygon points="78.371,193.184,67.177,173.795,89.565,173.795" fill="rgb(215,33,33)" vector-effect="non-scaling-stroke" stroke-width="3" stroke="rgb(215,33,33)" stroke-linejoin="miter" stroke-linecap="square" stroke-miterlimit="3"/></g><line x1="5.997" y1="284.595" x2="465.468" y2="284.595" vector-effect="non-scaling-stroke" stroke-width="3" stroke="rgb(128,128,128)" stroke-linejoin="miter" stroke-linecap="square" stroke-miterlimit="3"/><line x1="7.135" y1="130.937" x2="466.606" y2="130.937" vector-effect="non-scaling-stroke" stroke-width="3" stroke="rgb(128,128,128)" stroke-linejoin="miter" stroke-linecap="square" stroke-miterlimit="3"/><path d=" M 35.86 68.912 C 35.86 47.977 54.909 30.979 78.371 30.979 C 101.833 30.979 120.882 47.977 120.882 68.912 C 120.882 89.848 101.833 106.845 78.371 106.845 C 54.909 106.845 35.86 89.848 35.86 68.912 Z " fill="rgb(51,51,51)"/><line x1="78.371" y1="121.282" x2="78.371" y2="175.207" vector-effect="non-scaling-stroke" stroke-width="4" stroke="rgb(215,33,33)" stroke-linejoin="miter" stroke-linecap="square" stroke-miterlimit="3"/><rect x="561.159" y="4.5" width="461.747" height="418.083" transform="matrix(1,0,0,1,0,0)" fill="rgb(255,255,255)" vector-effect="non-scaling-stroke" stroke-width="3" stroke="rgb(128,128,128)" stroke-linejoin="miter" stroke-linecap="square" stroke-miterlimit="3"/><rect x="709.385" y="4.5" width="165.294" height="418.083" transform="matrix(1,0,0,1,0,0)" fill="rgb(255,255,255)" vector-effect="non-scaling-stroke" stroke-width="3" stroke="rgb(128,128,128)" stroke-linejoin="miter" stroke-linecap="square" stroke-miterlimit="3"/><line x1="562.656" y1="284.595" x2="1022.127" y2="284.595" vector-effect="non-scaling-stroke" stroke-width="3" stroke="rgb(128,128,128)" stroke-linejoin="miter" stroke-linecap="square" stroke-miterlimit="3"/><line x1="563.794" y1="130.937" x2="1023.265" y2="130.937" vector-effect="non-scaling-stroke" stroke-width="3" stroke="rgb(128,128,128)" stroke-linejoin="miter" stroke-linecap="square" stroke-miterlimit="3"/><path d=" M 592.519 68.912 C 592.519 47.977 611.568 30.979 635.03 30.979 C 658.492 30.979 677.541 47.977 677.541 68.912 C 677.541 89.848 658.492 106.845 635.03 106.845 C 611.568 106.845 592.519 89.848 592.519 68.912 Z " fill="rgb(51,51,51)"/><line x1="635.03" y1="121.282" x2="635.03" y2="175.207" vector-effect="non-scaling-stroke" stroke-width="4" stroke="rgb(215,33,33)" stroke-linejoin="miter" stroke-linecap="square" stroke-miterlimit="3"/><polygon points="635.03,193.184,623.836,173.795,646.224,173.795" fill="rgb(215,33,33)" vector-effect="non-scaling-stroke" stroke-width="3" stroke="rgb(215,33,33)" stroke-linejoin="miter" stroke-linecap="square" stroke-miterlimit="3"/><rect x="561.159" y="4.5" width="461.747" height="418.083" transform="matrix(1,0,0,1,0,0)" fill="rgb(255,255,255)" vector-effect="non-scaling-stroke" stroke-width="3" stroke="rgb(128,128,128)" stroke-linejoin="miter" stroke-linecap="square" stroke-miterlimit="3"/><rect x="709.385" y="4.5" width="165.294" height="418.083" transform="matrix(1,0,0,1,0,0)" fill="rgb(255,255,255)" vector-effect="non-scaling-stroke" stroke-width="3" stroke="rgb(128,128,128)" stroke-linejoin="miter" stroke-linecap="square" stroke-miterlimit="3"/><line x1="562.656" y1="284.595" x2="1022.127" y2="284.595" vector-effect="non-scaling-stroke" stroke-width="3" stroke="rgb(128,128,128)" stroke-linejoin="miter" stroke-linecap="square" stroke-miterlimit="3"/><line x1="563.794" y1="130.937" x2="1023.265" y2="130.937" vector-effect="non-scaling-stroke" stroke-width="3" stroke="rgb(128,128,128)" stroke-linejoin="miter" stroke-linecap="square" stroke-miterlimit="3"/><path d=" M 592.519 211.728 C 592.519 190.792 611.568 173.795 635.03 173.795 C 658.492 173.795 677.541 190.792 677.541 211.728 C 677.541 232.664 658.492 249.661 635.03 249.661 C 611.568 249.661 592.519 232.664 592.519 211.728 Z " fill="rgb(51,51,51)"/><rect x="1117.818" y="4.5" width="461.747" height="418.083" transform="matrix(1,0,0,1,0,0)" fill="rgb(255,255,255)" vector-effect="non-scaling-stroke" stroke-width="3" stroke="rgb(128,128,128)" stroke-linejoin="miter" stroke-linecap="square" stroke-miterlimit="3"/><rect x="1266.044" y="4.5" width="165.294" height="418.083" transform="matrix(1,0,0,1,0,0)" fill="rgb(255,255,255)" vector-effect="non-scaling-stroke" stroke-width="3" stroke="rgb(128,128,128)" stroke-linejoin="miter" stroke-linecap="square" stroke-miterlimit="3"/><line x1="1119.315" y1="284.595" x2="1578.786" y2="284.595" vector-effect="non-scaling-stroke" stroke-width="3" stroke="rgb(128,128,128)" stroke-linejoin="miter" stroke-linecap="square" stroke-miterlimit="3"/><line x1="1120.453" y1="130.937" x2="1579.924" y2="130.937" vector-effect="non-scaling-stroke" stroke-width="3" stroke="rgb(128,128,128)" stroke-linejoin="miter" stroke-linecap="square" stroke-miterlimit="3"/><path d=" M 1149.178 68.912 C 1149.178 47.977 1168.226 30.979 1191.689 30.979 C 1215.151 30.979 1234.2 47.977 1234.2 68.912 C 1234.2 89.848 1215.151 106.845 1191.689 106.845 C 1168.226 106.845 1149.178 89.848 1149.178 68.912 Z " fill="rgb(51,51,51)"/><line x1="1191.689" y1="121.282" x2="1191.689" y2="175.207" vector-effect="non-scaling-stroke" stroke-width="4" stroke="rgb(215,33,33)" stroke-linejoin="miter" stroke-linecap="square" stroke-miterlimit="3"/><polygon points="1191.689,193.184,1180.495,173.795,1202.883,173.795" fill="rgb(215,33,33)" vector-effect="non-scaling-stroke" stroke-width="3" stroke="rgb(215,33,33)" stroke-linejoin="miter" stroke-linecap="square" stroke-miterlimit="3"/><rect x="1117.818" y="4.5" width="461.747" height="418.083" transform="matrix(1,0,0,1,0,0)" fill="rgb(255,255,255)" vector-effect="non-scaling-stroke" stroke-width="3" stroke="rgb(128,128,128)" stroke-linejoin="miter" stroke-linecap="square" stroke-miterlimit="3"/><rect x="1266.044" y="4.5" width="165.294" height="418.083" transform="matrix(1,0,0,1,0,0)" fill="rgb(255,255,255)" vector-effect="non-scaling-stroke" stroke-width="3" stroke="rgb(128,128,128)" stroke-linejoin="miter" stroke-linecap="square" stroke-miterlimit="3"/><g id="Group"><line x1="1284.555" y1="207.906" x2="1230.63" y2="207.906" vector-effect="non-scaling-stroke" stroke-width="4" stroke="rgb(215,33,33)" stroke-linejoin="miter" stroke-linecap="square" stroke-miterlimit="3"/><polygon points="1211.241,207.906,1230.63,196.712,1230.63,219.101" fill="rgb(215,33,33)" vector-effect="non-scaling-stroke" stroke-width="3" stroke="rgb(215,33,33)" stroke-linejoin="miter" stroke-linecap="square" stroke-miterlimit="3"/></g><g id="Group"><line x1="1405.984" y1="207.906" x2="1459.909" y2="207.906" vector-effect="non-scaling-stroke" stroke-width="4" stroke="rgb(215,33,33)" stroke-linejoin="miter" stroke-linecap="square" stroke-miterlimit="3"/><polygon points="1479.298,207.906,1459.909,219.101,1459.909,196.712" fill="rgb(215,33,33)" vector-effect="non-scaling-stroke" stroke-width="3" stroke="rgb(215,33,33)" stroke-linejoin="miter" stroke-linecap="square" stroke-miterlimit="3"/></g><polygon points="1348.344,85.039,1359.538,104.428,1337.149,104.428" fill="rgb(215,33,33)" vector-effect="non-scaling-stroke" stroke-width="3" stroke="rgb(215,33,33)" stroke-linejoin="miter" stroke-linecap="square" stroke-miterlimit="3"/><line x1="1120.453" y1="130.937" x2="1579.924" y2="130.937" vector-effect="non-scaling-stroke" stroke-width="3" stroke="rgb(128,128,128)" stroke-linejoin="miter" stroke-linecap="square" stroke-miterlimit="3"/><line x1="1119.315" y1="284.595" x2="1578.786" y2="284.595" vector-effect="non-scaling-stroke" stroke-width="3" stroke="rgb(128,128,128)" stroke-linejoin="miter" stroke-linecap="square" stroke-miterlimit="3"/><path d=" M 1306.18 211.728 C 1306.18 190.792 1325.229 173.795 1348.691 173.795 C 1372.153 173.795 1391.202 190.792 1391.202 211.728 C 1391.202 232.664 1372.153 249.661 1348.691 249.661 C 1325.229 249.661 1306.18 232.664 1306.18 211.728 Z " fill="rgb(51,51,51)"/><g id="Group"><line x1="1348.691" y1="265.234" x2="1348.691" y2="319.159" vector-effect="non-scaling-stroke" stroke-width="4" stroke="rgb(215,33,33)" stroke-linejoin="miter" stroke-linecap="square" stroke-miterlimit="3"/><polygon points="1348.691,338.549,1337.497,319.159,1359.885,319.159" fill="rgb(215,33,33)" vector-effect="non-scaling-stroke" stroke-width="3" stroke="rgb(215,33,33)" stroke-linejoin="miter" stroke-linecap="square" stroke-miterlimit="3"/></g><line x1="1348.344" y1="158.353" x2="1348.344" y2="104.428" vector-effect="non-scaling-stroke" stroke-width="4" stroke="rgb(215,33,33)" stroke-linejoin="miter" stroke-linecap="square" stroke-miterlimit="3"/></g><g id="Group"><line x1="635.401" y1="266.788" x2="635.401" y2="320.713" vector-effect="non-scaling-stroke" stroke-width="4" stroke="rgb(215,33,33)" stroke-linejoin="miter" stroke-linecap="square" stroke-miterlimit="3"/><polygon points="635.401,340.103,624.207,320.713,646.596,320.713" fill="rgb(215,33,33)" vector-effect="non-scaling-stroke" stroke-width="3" stroke="rgb(215,33,33)" stroke-linejoin="miter" stroke-linecap="square" stroke-miterlimit="3"/></g><g id="Group"><line x1="685.741" y1="213.542" x2="739.666" y2="213.542" vector-effect="non-scaling-stroke" stroke-width="4" stroke="rgb(215,33,33)" stroke-linejoin="miter" stroke-linecap="square" stroke-miterlimit="3"/><polygon points="759.055,213.542,739.666,224.736,739.666,202.347" fill="rgb(215,33,33)" vector-effect="non-scaling-stroke" stroke-width="3" stroke="rgb(215,33,33)" stroke-linejoin="miter" stroke-linecap="square" stroke-miterlimit="3"/></g><g id="Group"><line x1="635.401" y1="156.73" x2="635.401" y2="102.805" vector-effect="non-scaling-stroke" stroke-width="4" stroke="rgb(215,33,33)" stroke-linejoin="miter" stroke-linecap="square" stroke-miterlimit="3"/><polygon points="635.401,83.416,646.596,102.805,624.207,102.805" fill="rgb(215,33,33)" vector-effect="non-scaling-stroke" stroke-width="3" stroke="rgb(215,33,33)" stroke-linejoin="miter" stroke-linecap="square" stroke-miterlimit="3"/></g><g id="Group"><line x1="132.514" y1="67.465" x2="186.439" y2="67.465" vector-effect="non-scaling-stroke" stroke-width="4" stroke="rgb(215,33,33)" stroke-linejoin="miter" stroke-linecap="square" stroke-miterlimit="3"/><polygon points="205.828,67.465,186.439,78.659,186.439,56.271" fill="rgb(215,33,33)" vector-effect="non-scaling-stroke" stroke-width="3" stroke="rgb(215,33,33)" stroke-linejoin="miter" stroke-linecap="square" stroke-miterlimit="3"/></g><g transform="matrix(1,0,0,1,210.689,445.223)"><text transform="matrix(1,0,0,1,0,38.479)" style="font-family:&quot;Open Sans&quot;;font-weight:700;font-size:36px;font-style:normal;fill:#000000;stroke:none;">(a)</text></g><g transform="matrix(1,0,0,1,767.348,445.223)"><text transform="matrix(1,0,0,1,0,38.479)" style="font-family:&quot;Open Sans&quot;;font-weight:700;font-size:36px;font-style:normal;fill:#000000;stroke:none;">(b)</text></g><g transform="matrix(1,0,0,1,1324.007,445.223)"><text transform="matrix(1,0,0,1,0,38.479)" style="font-family:&quot;Open Sans&quot;;font-weight:700;font-size:36px;font-style:normal;fill:#000000;stroke:none;">(c)</text></g></g></svg>